<svg width="42" height="12" viewBox="0 0 42 12" fill="none" xmlns="http://www.w3.org/2000/svg">
<path d="M1 5.25C0.585786 5.25 0.25 5.58579 0.25 6C0.25 6.41421 0.585786 6.75 1 6.75L1 5.25ZM41.5303 6.53033C41.8232 6.23744 41.8232 5.76256 41.5303 5.46967L36.7574 0.696699C36.4645 0.403806 35.9896 0.403806 35.6967 0.696699C35.4038 0.989593 35.4038 1.46447 35.6967 1.75736L39.9393 6L35.6967 10.2426C35.4038 10.5355 35.4038 11.0104 35.6967 11.3033C35.9896 11.5962 36.4645 11.5962 36.7574 11.3033L41.5303 6.53033ZM1 6.75L41 6.75V5.25L1 5.25L1 6.75Z" fill="url(#paint0_linear_2_81)" fill-opacity="0.9"/>
<defs>
<linearGradient id="paint0_linear_2_81" x1="21" y1="6" x2="0.636364" y2="6" gradientUnits="userSpaceOnUse">
<stop stop-color="white"/>
<stop offset="1" stop-color="white" stop-opacity="0"/>
</linearGradient>
</defs>
</svg>
