<svg width="14" height="14" viewBox="0 0 14 14" fill="none" xmlns="http://www.w3.org/2000/svg">
<path d="M12.85 2.74449C12.8175 2.66586 12.7693 2.59219 12.7054 2.52827L10.7054 0.52827C10.445 0.26792 10.0229 0.26792 9.76256 0.52827C9.50221 0.788619 9.50221 1.21073 9.76256 1.47108L10.6245 2.33301L4.23397 2.33301C2.39302 2.33301 0.900635 3.82539 0.900635 5.66634V6.99967C0.900635 7.36786 1.19911 7.66634 1.5673 7.66634C1.93549 7.66634 2.23397 7.36786 2.23397 6.99967L2.23397 5.66634C2.23397 4.56177 3.1294 3.66634 4.23397 3.66634L10.6245 3.66634L9.76256 4.52827C9.50221 4.78862 9.50221 5.21073 9.76256 5.47108C10.0229 5.73143 10.445 5.73143 10.7054 5.47108L12.7049 3.47159C12.7065 3.46997 12.7081 3.46834 12.7097 3.46671C12.837 3.3371 12.9006 3.16839 12.9006 2.99967" fill="white"/>
<path d="M12.85 2.74449C12.8824 2.82251 12.9004 2.90801 12.9006 2.99767L12.85 2.74449Z" fill="white"/>
<path d="M0.951221 10.7445C0.918625 10.8231 0.900635 10.9093 0.900635 10.9997C0.900635 11.1838 0.975254 11.3504 1.0959 11.4711L3.0959 13.4711C3.35625 13.7314 3.77836 13.7314 4.03871 13.4711C4.29906 13.2107 4.29906 12.7886 4.03871 12.5283L3.17678 11.6663L9.5673 11.6663C11.4083 11.6663 12.9006 10.174 12.9006 8.33301V6.99968C12.9006 6.63149 12.6022 6.33301 12.234 6.33301C11.8658 6.33301 11.5673 6.63149 11.5673 6.99968V8.33301C11.5673 9.43758 10.6719 10.333 9.5673 10.333L3.17678 10.333L4.03871 9.47108C4.29906 9.21073 4.29906 8.78862 4.03871 8.52827C3.77836 8.26792 3.35625 8.26792 3.0959 8.52827L1.09607 10.5281" fill="white"/>
<path d="M0.951221 10.7445C0.983514 10.6664 1.03127 10.5933 1.09449 10.5297L0.951221 10.7445Z" fill="white"/>
<path d="M12.85 2.74449C12.8175 2.66586 12.7693 2.59219 12.7054 2.52827L10.7054 0.52827C10.445 0.26792 10.0229 0.26792 9.76256 0.52827C9.50221 0.788619 9.50221 1.21073 9.76256 1.47108L10.6245 2.33301L4.23397 2.33301C2.39302 2.33301 0.900635 3.82539 0.900635 5.66634V6.99967C0.900635 7.36786 1.19911 7.66634 1.5673 7.66634C1.93549 7.66634 2.23397 7.36786 2.23397 6.99967L2.23397 5.66634C2.23397 4.56177 3.1294 3.66634 4.23397 3.66634L10.6245 3.66634L9.76256 4.52827C9.50221 4.78862 9.50221 5.21073 9.76256 5.47108C10.0229 5.73143 10.445 5.73143 10.7054 5.47108L12.7049 3.47159C12.7065 3.46997 12.7081 3.46834 12.7097 3.46671C12.837 3.3371 12.9006 3.16839 12.9006 2.99967L12.85 2.74449ZM12.85 2.74449C12.8824 2.82251 12.9004 2.90801 12.9006 2.99767L12.85 2.74449ZM0.951221 10.7445C0.918625 10.8231 0.900635 10.9093 0.900635 10.9997C0.900635 11.1838 0.975254 11.3504 1.0959 11.4711L3.0959 13.4711C3.35625 13.7314 3.77836 13.7314 4.03871 13.4711C4.29906 13.2107 4.29906 12.7886 4.03871 12.5283L3.17678 11.6663L9.5673 11.6663C11.4083 11.6663 12.9006 10.174 12.9006 8.33301V6.99968C12.9006 6.63149 12.6022 6.33301 12.234 6.33301C11.8658 6.33301 11.5673 6.63149 11.5673 6.99968V8.33301C11.5673 9.43758 10.6719 10.333 9.5673 10.333L3.17678 10.333L4.03871 9.47108C4.29906 9.21073 4.29906 8.78862 4.03871 8.52827C3.77836 8.26792 3.35625 8.26792 3.0959 8.52827L1.09607 10.5281L0.951221 10.7445ZM0.951221 10.7445C0.983514 10.6664 1.03127 10.5933 1.09449 10.5297L0.951221 10.7445Z" stroke="white" stroke-width="0.5" stroke-miterlimit="10" stroke-linecap="round" stroke-linejoin="round"/>
</svg>
