<svg width="14" height="14" viewBox="0 0 14 14" fill="none" xmlns="http://www.w3.org/2000/svg">
<path d="M5.66665 1.66634C3.45751 1.66634 1.66665 3.4572 1.66665 5.66634C1.66665 7.87548 3.45751 9.66634 5.66665 9.66634C7.87579 9.66634 9.66665 7.87548 9.66665 5.66634C9.66665 3.4572 7.87579 1.66634 5.66665 1.66634ZM0.333313 5.66634C0.333313 2.72082 2.72113 0.333008 5.66665 0.333008C8.61217 0.333008 11 2.72082 11 5.66634C11 6.89882 10.5819 8.03365 9.87988 8.93677L13.4714 12.5283C13.7317 12.7886 13.7317 13.2107 13.4714 13.4711C13.211 13.7314 12.7889 13.7314 12.5286 13.4711L8.93708 9.87958C8.03395 10.5816 6.89912 10.9997 5.66665 10.9997C2.72113 10.9997 0.333313 8.61186 0.333313 5.66634Z" fill="white" fill-opacity="0.5"/>
</svg>
