<svg width="16" height="16" viewBox="0 0 16 16" fill="none" xmlns="http://www.w3.org/2000/svg">
<path d="M8 2.66667C8.17681 2.66667 8.34638 2.73691 8.47141 2.86193L11.1381 5.5286C11.3984 5.78895 11.3984 6.21106 11.1381 6.47141C10.8777 6.73176 10.4556 6.73176 10.1953 6.47141L8 4.27615L5.80474 6.47141C5.54439 6.73176 5.12228 6.73176 4.86193 6.47141C4.60158 6.21106 4.60158 5.78895 4.86193 5.5286L7.5286 2.86193C7.65362 2.73691 7.82319 2.66667 8 2.66667ZM4.86193 9.52861C5.12228 9.26826 5.54439 9.26826 5.80474 9.52861L8 11.7239L10.1953 9.52861C10.4556 9.26826 10.8777 9.26826 11.1381 9.52861C11.3984 9.78895 11.3984 10.2111 11.1381 10.4714L8.4714 13.1381C8.21106 13.3984 7.78895 13.3984 7.5286 13.1381L4.86193 10.4714C4.60158 10.2111 4.60158 9.78895 4.86193 9.52861Z" fill="white"/>
</svg>
