<svg width="12" height="14" viewBox="0 0 12 14" fill="none" xmlns="http://www.w3.org/2000/svg">
<path d="M1.33333 2.99967C1.33333 3.0167 1.34015 3.11273 1.52806 3.27933C1.71519 3.44524 2.02401 3.62511 2.46285 3.78967C3.3356 4.11695 4.58602 4.33301 6 4.33301C7.41398 4.33301 8.6644 4.11695 9.53715 3.78967C9.97599 3.62511 10.2848 3.44524 10.4719 3.27933C10.6599 3.11273 10.6667 3.0167 10.6667 2.99967C10.6667 2.98265 10.6599 2.88662 10.4719 2.72002C10.2848 2.55411 9.97599 2.37424 9.53715 2.20968C8.6644 1.8824 7.41398 1.66634 6 1.66634C4.58602 1.66634 3.3356 1.8824 2.46285 2.20968C2.02401 2.37424 1.71519 2.55411 1.52806 2.72002C1.34015 2.88662 1.33333 2.98265 1.33333 2.99967ZM0 2.99967C0 2.46441 0.291662 2.0343 0.643516 1.72234C0.996145 1.4097 1.46837 1.15861 1.99468 0.961241C3.05222 0.564665 4.46846 0.333008 6 0.333008C7.53154 0.333008 8.94778 0.564665 10.0053 0.961241C10.5316 1.15861 11.0039 1.4097 11.3565 1.72234C11.7083 2.0343 12 2.46441 12 2.99967V5.66634V8.33301V10.9997C12 11.5349 11.7083 11.9651 11.3565 12.277C11.0039 12.5896 10.5316 12.8407 10.0053 13.0381C8.94778 13.4347 7.53154 13.6663 6 13.6663C4.46846 13.6663 3.05222 13.4347 1.99468 13.0381C1.46837 12.8407 0.996145 12.5896 0.643516 12.277C0.291662 11.9651 0 11.5349 0 10.9997V8.33301V5.66634V2.99967ZM1.33333 5.66634C1.33333 5.68336 1.34015 5.77939 1.52806 5.94599C1.71519 6.1119 2.02401 6.29177 2.46285 6.45634C3.3356 6.78362 4.58602 6.99967 6 6.99967C7.41398 6.99967 8.6644 6.78362 9.53715 6.45634C9.97599 6.29177 10.2848 6.1119 10.4719 5.94599C10.6599 5.77939 10.6667 5.68336 10.6667 5.66634V4.7438C10.4606 4.85288 10.2383 4.95076 10.0053 5.03811C8.94778 5.43468 7.53154 5.66634 6 5.66634C4.46846 5.66634 3.05222 5.43468 1.99468 5.03811C1.76175 4.95076 1.5394 4.85288 1.33333 4.7438V5.66634ZM1.33333 7.41047V8.33301C1.33333 8.35003 1.34015 8.44606 1.52806 8.61266C1.71519 8.77857 2.02401 8.95844 2.46285 9.123C3.3356 9.45028 4.58602 9.66634 6 9.66634C7.41398 9.66634 8.6644 9.45028 9.53715 9.123C9.97599 8.95844 10.2848 8.77857 10.4719 8.61266C10.6599 8.44606 10.6667 8.35003 10.6667 8.33301V7.41047C10.4606 7.51955 10.2383 7.61742 10.0053 7.70477C8.94778 8.10135 7.53154 8.33301 6 8.33301C4.46846 8.33301 3.05222 8.10135 1.99468 7.70477C1.76175 7.61742 1.5394 7.51955 1.33333 7.41047ZM1.33333 10.0771V10.9997C1.33333 11.0167 1.34015 11.1127 1.52806 11.2793C1.71519 11.4452 2.02401 11.6251 2.46285 11.7897C3.3356 12.117 4.58602 12.333 6 12.333C7.41398 12.333 8.6644 12.117 9.53715 11.7897C9.97599 11.6251 10.2848 11.4452 10.4719 11.2793C10.6599 11.1127 10.6667 11.0167 10.6667 10.9997V10.0771C10.4606 10.1862 10.2383 10.2841 10.0053 10.3714C8.94778 10.768 7.53154 10.9997 6 10.9997C4.46846 10.9997 3.05222 10.768 1.99468 10.3714C1.76175 10.2841 1.5394 10.1862 1.33333 10.0771Z" fill="white"/>
</svg>
