<svg width="274" height="159" viewBox="0 0 274 159" fill="none" xmlns="http://www.w3.org/2000/svg">
<mask id="mask0_205_99" style="mask-type:alpha" maskUnits="userSpaceOnUse" x="0" y="0" width="274" height="159">
<rect width="274" height="159" fill="#C4C4C4"/>
</mask>
<g mask="url(#mask0_205_99)">
<path d="M256.047 -43.3975L153.299 24.4718L172.299 -15.5702L256.047 -43.3975Z" fill="#E2761B" stroke="#E2761B" stroke-linecap="round" stroke-linejoin="round"/>
<path d="M18.8477 -43.3975L120.77 25.1147L102.698 -15.5701L18.8477 -43.3975Z" fill="#E4761B" stroke="#E4761B" stroke-linecap="round" stroke-linejoin="round"/>
<path d="M219.078 113.923L191.713 151.21L250.264 165.537L267.096 114.749L219.078 113.923Z" fill="#E4761B" stroke="#E4761B" stroke-linecap="round" stroke-linejoin="round"/>
<path d="M8.00586 114.749L24.7347 165.537L83.2855 151.21L55.9205 113.923L8.00586 114.749Z" fill="#E4761B" stroke="#E4761B" stroke-linecap="round" stroke-linejoin="round"/>
<path d="M79.9818 50.9217L63.666 72.8713L121.804 75.1673L119.739 19.6045L79.9818 50.9217Z" fill="#E4761B" stroke="#E4761B" stroke-linecap="round" stroke-linejoin="round"/>
<path d="M194.914 50.921L154.641 18.9609L153.299 75.1666L211.333 72.8706L194.914 50.921Z" fill="#E4761B" stroke="#E4761B" stroke-linecap="round" stroke-linejoin="round"/>
<path d="M83.2852 151.21L118.188 136.057L88.0353 115.117L83.2852 151.21Z" fill="#E4761B" stroke="#E4761B" stroke-linecap="round" stroke-linejoin="round"/>
<path d="M156.707 136.057L191.714 151.21L186.86 115.117L156.707 136.057Z" fill="#E4761B" stroke="#E4761B" stroke-linecap="round" stroke-linejoin="round"/>
<path d="M191.714 151.21L156.707 136.057L159.495 156.353L159.185 164.894L191.714 151.21Z" fill="#D7C1B3" stroke="#D7C1B3" stroke-linecap="round" stroke-linejoin="round"/>
<path d="M83.2871 151.21L115.815 164.894L115.609 156.353L118.19 136.057L83.2871 151.21Z" fill="#D7C1B3" stroke="#D7C1B3" stroke-linecap="round" stroke-linejoin="round"/>
<path d="M116.331 101.71L87.2109 94.0869L107.761 85.7295L116.331 101.71Z" fill="#233447" stroke="#233447" stroke-linecap="round" stroke-linejoin="round"/>
<path d="M158.566 101.71L167.137 85.7295L187.79 94.0869L158.566 101.71Z" fill="#233447" stroke="#233447" stroke-linecap="round" stroke-linejoin="round"/>
<path d="M83.2869 151.21L88.2436 113.923L55.9219 114.749L83.2869 151.21Z" fill="#CD6116" stroke="#CD6116" stroke-linecap="round" stroke-linejoin="round"/>
<path d="M186.758 113.923L191.715 151.21L219.08 114.749L186.758 113.923Z" fill="#CD6116" stroke="#CD6116" stroke-linecap="round" stroke-linejoin="round"/>
<path d="M211.335 72.8711L153.301 75.1671L158.671 101.709L167.241 85.7286L187.894 94.086L211.335 72.8711Z" fill="#CD6116" stroke="#CD6116" stroke-linecap="round" stroke-linejoin="round"/>
<path d="M87.2103 94.086L107.863 85.7286L116.331 101.709L121.804 75.1671L63.666 72.8711L87.2103 94.086Z" fill="#CD6116" stroke="#CD6116" stroke-linecap="round" stroke-linejoin="round"/>
<path d="M63.666 72.8711L88.0364 115.117L87.2103 94.086L63.666 72.8711Z" fill="#E4751F" stroke="#E4751F" stroke-linecap="round" stroke-linejoin="round"/>
<path d="M187.892 94.086L186.859 115.117L211.333 72.8711L187.892 94.086Z" fill="#E4751F" stroke="#E4751F" stroke-linecap="round" stroke-linejoin="round"/>
<path d="M121.803 75.167L116.33 101.709L123.145 133.026L124.694 91.7899L121.803 75.167Z" fill="#E4751F" stroke="#E4751F" stroke-linecap="round" stroke-linejoin="round"/>
<path d="M153.3 75.167L150.512 91.6981L151.751 133.026L158.67 101.709L153.3 75.167Z" fill="#E4751F" stroke="#E4751F" stroke-linecap="round" stroke-linejoin="round"/>
<path d="M158.669 101.709L151.75 133.026L156.707 136.056L186.86 115.117L187.892 94.0859L158.669 101.709Z" fill="#F6851B" stroke="#F6851B" stroke-linecap="round" stroke-linejoin="round"/>
<path d="M87.2109 94.0859L88.0371 115.117L118.19 136.056L123.147 133.026L116.331 101.709L87.2109 94.0859Z" fill="#F6851B" stroke="#F6851B" stroke-linecap="round" stroke-linejoin="round"/>
<path d="M159.186 164.894L159.496 156.353L156.915 154.333H117.984L115.609 156.353L115.815 164.894L83.2871 151.21L94.6462 159.476L117.674 173.711H157.224L180.356 159.476L191.715 151.21L159.186 164.894Z" fill="#C0AD9E" stroke="#C0AD9E" stroke-linecap="round" stroke-linejoin="round"/>
<path d="M156.707 136.057L151.75 133.026H123.146L118.189 136.057L115.607 156.354L117.982 154.333H156.913L159.495 156.354L156.707 136.057Z" fill="#161616" stroke="#161616" stroke-linecap="round" stroke-linejoin="round"/>
<path d="M260.384 28.8801L269.162 -8.59036L256.047 -43.3975L156.707 22.1758L194.915 50.9215L248.922 64.9729L260.901 52.5746L255.737 49.2684L263.999 42.5641L257.596 38.1559L265.857 32.5536L260.384 28.8801Z" fill="#763D16" stroke="#763D16" stroke-linecap="round" stroke-linejoin="round"/>
<path d="M5.83789 -8.59036L14.6154 28.8801L9.03909 32.5536L17.3002 38.1559L11.0011 42.5641L19.2622 49.2684L14.099 52.5746L25.9744 64.9729L79.9816 50.9215L118.189 22.1758L18.8492 -43.3975L5.83789 -8.59036Z" fill="#763D16" stroke="#763D16" stroke-linecap="round" stroke-linejoin="round"/>
<path d="M248.921 64.9733L194.914 50.9219L211.333 72.8715L186.859 115.118L219.078 114.75H267.096L248.921 64.9733Z" fill="#F6851B" stroke="#F6851B" stroke-linecap="round" stroke-linejoin="round"/>
<path d="M79.9811 50.9219L25.9738 64.9733L8.00586 114.75H55.9205L88.0357 115.118L63.6653 72.8715L79.9811 50.9219Z" fill="#F6851B" stroke="#F6851B" stroke-linecap="round" stroke-linejoin="round"/>
<path d="M153.299 75.1679L156.706 22.1766L172.403 -15.5693H102.699L118.189 22.1766L121.803 75.1679L123.042 91.8826L123.146 133.027H151.75L151.956 91.8826L153.299 75.1679Z" fill="#F6851B" stroke="#F6851B" stroke-linecap="round" stroke-linejoin="round"/>
</g>
</svg>
