<svg width="388" height="238" viewBox="0 0 388 238" fill="none" xmlns="http://www.w3.org/2000/svg">
<path d="M79.4992 46.5386C142.715 -15.3553 245.209 -15.3553 308.425 46.5386L316.034 53.9877C319.194 57.0824 319.194 62.0999 316.034 65.1946L290.008 90.6763C288.427 92.2236 285.865 92.2236 284.284 90.6763L273.815 80.4255C229.713 37.2467 158.211 37.2467 114.11 80.4255L102.898 91.4032C101.317 92.9506 98.755 92.9506 97.1746 91.4032L71.1485 65.9215C67.9877 62.8268 67.9877 57.8093 71.1485 54.7146L79.4992 46.5386ZM362.25 99.2375L385.413 121.916C388.574 125.011 388.574 130.028 385.413 133.123L280.968 235.385C277.808 238.479 272.683 238.48 269.522 235.385C269.522 235.385 269.522 235.385 269.522 235.385L195.394 162.807C194.603 162.033 193.322 162.033 192.532 162.807C192.532 162.807 192.532 162.807 192.532 162.807L118.405 235.385C115.244 238.479 110.12 238.48 106.959 235.385C106.959 235.385 106.959 235.385 106.959 235.385L2.51123 133.122C-0.649578 130.027 -0.649578 125.01 2.51123 121.915L25.6745 99.2362C28.8353 96.1415 33.96 96.1415 37.1208 99.2362L111.25 171.815C112.041 172.589 113.322 172.589 114.112 171.815C114.112 171.815 114.112 171.815 114.112 171.815L188.238 99.2362C191.399 96.1414 196.523 96.1413 199.684 99.2359C199.684 99.2359 199.684 99.236 199.684 99.236L273.814 171.815C274.604 172.589 275.885 172.589 276.675 171.815L350.803 99.2375C353.964 96.1428 359.089 96.1428 362.25 99.2375Z" fill="white"/>
</svg>
